# xmcd
#
# Track frame offsets:
# 150
# 18787
# 32900
# 49817
# 65035
# 89780
# 127350
# 156020
# 186957
# 218000
# 242795
# 263872
# 294242
#
# Disc length: 4155 seconds
#
#
# Revision: 0
# Processed by: cddbd v1.4PL0 Copyright (c) Steve Scherf et al.
# Submitted via: FreeRIP 2.30 
#
DISCID=c410390d
DTITLE=Ron Levy's Wild Kingdom - Best Grooves and Jams
DYEAR=1900
DGENRE=Blues
TTITLE0=Knee Squeeze
TTITLE1=Chicken Fried Snake
TTITLE2=Groovelatin Acid Blues
TTITLE3=Defrostin'
TTITLE4=Chillin' Out
TTITLE5=Prayin' The Blues
TTITLE6=Greaze Is What's Good
TTITLE7=J-J-Jazz It Up
TTITLE8=U Rockin' Me
TTITLE9=Square Business
TTITLE10=The Life You Save May Be Your Own
TTITLE11=Some Help I Don't Need
TTITLE12=Smoke 'n' Fire
EXTD=Many heavy hitters sitting in
EXTT0=
EXTT1=
EXTT2=
EXTT3=
EXTT4=
EXTT5=
EXTT6=
EXTT7=
EXTT8=
EXTT9=
EXTT10=
EXTT11=
EXTT12=
PLAYORDER=
